<svg xmlns="http://www.w3.org/2000/svg" width="116" height="77.491" viewBox="0 0 116 77.491"><defs><style>.a{fill:#fff;}</style></defs><g transform="translate(0.946)"><path class="a" d="M-8456.194,276.794a10.62,10.62,0,0,0-1.8,5.943c0,3.162,1.884,3.969,3.2,3.969a3.445,3.445,0,0,0,2.328-.87,8.966,8.966,0,0,0,1.671-1.719c.423-.573.572-.68.551-.319a8.6,8.6,0,0,1-1.08,2.335c-.063.085-.168.191-.274.168-.3-.1-.55-.062-1.206.256a5.98,5.98,0,0,1-2.708.637c-1.376,0-4.105-1.124-4.105-5.179a9.1,9.1,0,0,1,3.175-6.643,7.929,7.929,0,0,1,4.781-1.847,5.543,5.543,0,0,1,2.5.573,1.523,1.523,0,0,0,1.058-.043c.127-.043.19.021.043.233a6.512,6.512,0,0,0-.952,2.143c-.106.233-.383.425-.317-.063a2.332,2.332,0,0,0-.19-1.571,2.274,2.274,0,0,0-2.074-.934C-8453.126,273.865-8454.778,274.84-8456.194,276.794Z" transform="translate(8459.623 -272.145)"/><path class="a" d="M-8438.83,280.734a3.492,3.492,0,0,1-.275,1.1c-.464,1.189-1.713,4.224-2.178,5.285-.147.339-.064.4.042.4.3,0,1.205-.828,1.545-1.189s.254,0,.106.234a3.953,3.953,0,0,1-2.624,1.867c-.169,0-.4-.3-.4-.594a5.119,5.119,0,0,1,.508-1.634c.382-.85,1.207-3.015,1.9-4.542.106-.234.064-.382-.041-.382-.318,0-.8.318-1.4.934-.34.34-.34.043-.17-.191a4.273,4.273,0,0,1,2.623-1.783C-8438.936,280.246-8438.852,280.544-8438.83,280.734Zm.721-3.226a.8.8,0,0,1-.742.764.608.608,0,0,1-.591-.659.824.824,0,0,1,.719-.805A.644.644,0,0,1-8438.109,277.508Z" transform="translate(8452.923 -273.433)"/><path class="a" d="M-8432.083,282.176c-.086,0-.171.17-.213.3-.274.7-1.227,3.459-1.819,5.348-.042.149-.021.34.106.34a3.4,3.4,0,0,0,1.649-1.21c.36-.382.254.022.105.254-.8,1.21-2.265,2.356-2.92,2.356a.51.51,0,0,1-.423-.509,3.814,3.814,0,0,1,.232-1c.254-.721,1.249-3.736,1.883-5.6.022-.085.043-.233-.062-.233-.316-.022-.613,0-.847-.022-.147,0-.168-.063-.168-.086,0-.1.189-.233.273-.253a6.744,6.744,0,0,1,.931-.085c.065,0,.129-.106.147-.149.192-.4.552-1.188.764-1.528a1.3,1.3,0,0,1,.867-.424c.106,0,.127.17.063.34-.169.573-.339,1.188-.465,1.571-.021.042,0,.128.021.128.4,0,.992-.022,1.586-.022.042,0,.147.043.147.085s-.105.255-.444.3C-8431.11,282.111-8431.914,282.176-8432.083,282.176Z" transform="translate(8450.155 -274.556)"/><path class="a" d="M-8426.4,283.661a10.893,10.893,0,0,1,.316,3.141,20.792,20.792,0,0,1-.232,2.674c-.041.317.085.233.21.043a22.833,22.833,0,0,0,2.16-6.919.208.208,0,0,1,.147-.17c.339,0,.529.466.509.807,0,1.316-1.8,5.137-2.54,6.538a13.4,13.4,0,0,1-.93,1.571,16.287,16.287,0,0,1-3.111,3.884,3.871,3.871,0,0,1-2.412,1.1.9.9,0,0,1-.974-.87.918.918,0,0,1,.678-.892c.19,0,.232.064.3.34a.888.888,0,0,0,.847.658,2.8,2.8,0,0,0,2.074-1.295,9.78,9.78,0,0,0,1.9-3.757,14.348,14.348,0,0,0,.022-6.155c-.191-.573-.423-.849-.656-.849-.551,0-.889.87-1.059,1.358-.1.445-.232.3-.232-.043,0-1.126.91-2.356,1.777-2.356C-8427.037,282.472-8426.635,282.981-8426.4,283.661Z" transform="translate(8449.232 -275.637)"/><path class="a" d="M-8405.158,284.927a6.992,6.992,0,0,1-2.432,4.967,3.169,3.169,0,0,1-2.032.763c-.72,0-1.566-.678-1.566-2.334a7.311,7.311,0,0,1,1.5-4.118,3.9,3.9,0,0,1,2.9-1.74C-8405.5,282.465-8405.158,283.95-8405.158,284.927Zm-3.534-.34a9.424,9.424,0,0,0-1.459,4.563c0,.786.232,1.21.655,1.21.34,0,.8-.3,1.334-.975a11.031,11.031,0,0,0,1.968-5.265c0-.51-.021-1.358-.551-1.358C-8407.253,282.762-8407.888,283.335-8408.692,284.587Z" transform="translate(8440.535 -275.651)"/><path class="a" d="M-8394.369,272.274a1.1,1.1,0,0,1-.213.636,1,1,0,0,1-.7.4.175.175,0,0,1-.189-.213,5.216,5.216,0,0,0,.082-.722c0-.34-.148-.785-.655-.785-.485,0-.931.255-1.523,1.274a22.847,22.847,0,0,0-1.968,5.412c-.021.063-.021.17.065.17l1.4-.021c.148,0,.3.064.3.128,0,.127-.255.212-.509.233-.317.043-.762.085-1.291.106a.236.236,0,0,0-.147.17c-.423,1.549-1.651,6.494-2.454,9.488-.551,1.974-1.969,3.757-3.958,3.757-.592,0-1.143-.4-1.143-.743a.957.957,0,0,1,.508-.66.559.559,0,0,1,.466.128c.444.319.7.68,1.206.68.635,0,1.037-.637,1.608-2.716.8-3.12,1.819-7.514,2.433-9.849.022-.106.022-.212-.063-.212l-1.036-.021c-.127,0-.254-.064-.254-.149,0-.127.317-.191.444-.212.3-.021.846-.044,1.016-.064a.419.419,0,0,0,.127-.149c.889-3.056,1.883-5.009,3-6.049a2.941,2.941,0,0,1,2.158-1.04C-8394.687,271.255-8394.369,271.849-8394.369,272.274Z" transform="translate(8438.994 -271.255)"/></g><g transform="translate(0 74.418)"><g transform="translate(0 0)"><path class="a" d="M-8461.184,396.766v-3.073h116v3.073Z" transform="translate(8461.184 -393.692)"/></g></g><g transform="translate(0 17.838)"><path class="a" d="M-8448.7,306.165a7.829,7.829,0,0,0-5.578-2.483c-2.337,0-3.766,1.259-3.766,2.762,0,2.029,1.395,2.869,5.927,5.527a10.169,10.169,0,0,1,3.068,2.659,6.288,6.288,0,0,1,1.29,3.952c0,3.743-2.685,6.506-6.9,6.506a10.624,10.624,0,0,1-6.415-2.2v-4.337a8.313,8.313,0,0,0,6.415,3.5c1.778,0,3.7-1.12,3.7-3.148,0-1.994-2.022-3.463-3.138-4.127-3.766-2.274-4.848-2.938-5.893-4.267a5.549,5.549,0,0,1-1.186-3.567c0-3.6,2.72-6.331,7.008-6.331a9.894,9.894,0,0,1,5.475,1.679Z" transform="translate(8461.184 -300.604)"/><path class="a" d="M-8413.932,324.885h-3.486l-3.173-7.031H-8430.7l-3,7.031h-3.486l10.215-23.994h2.406Zm-8.055-10.108-3.835-8.639-3.556,8.639Z" transform="translate(8451.726 -300.717)"/><path class="a" d="M-8377.146,306.235a16.758,16.758,0,0,0-8.229-2.379,9.029,9.029,0,0,0-9.414,9.059c0,4.442,3.139,8.989,9.449,8.989a15.542,15.542,0,0,0,8.438-2.659v3.742a17.567,17.567,0,0,1-8.647,2.1c-8.821,0-12.8-6.646-12.8-12.207,0-6.576,5.334-12.276,12.865-12.276a21.173,21.173,0,0,1,8.334,1.958Z" transform="translate(8436.419 -300.604)"/><path class="a" d="M-8349.915,301.122a9.9,9.9,0,0,1,4.079.769,6.177,6.177,0,0,1,3.731,5.876,5.968,5.968,0,0,1-3.976,5.876c2.161,1.434,3.487,3.638,5.3,6.576,1.011,1.644,1.6,2.448,3.243,4.757h-4.045c-.8-1.154-4.114-6.366-4.882-7.38-2.335-3.008-3.486-3.008-5.125-3.008h-.906v10.388h-3.382V301.122Zm-2.58,2.9v7.52h1.323a12.1,12.1,0,0,0,3.313-.349,3.61,3.61,0,0,0,2.267-3.428,3.485,3.485,0,0,0-1.811-3.182,9.334,9.334,0,0,0-4.047-.56Z" transform="translate(8419.682 -300.807)"/><path class="a" d="M-8302.354,324.885h-3.488l-3.172-7.031h-10.111l-3,7.031h-3.487l10.217-23.994h2.406Zm-8.055-10.108-3.835-8.639-3.557,8.639Z" transform="translate(8407.755 -300.717)"/></g><g transform="translate(0 45.741)"><path class="a" d="M-8439.009,370.884h-3.415V352.311l-7.323,9.234h-.628l-7.392-9.234v18.573h-3.417V347.03h3.209l7.914,9.793,7.879-9.793h3.173Z" transform="translate(8461.184 -346.715)"/><path class="a" d="M-8402.633,350.073h-10.077v7.275h9.729v3.043h-9.729v7.415h10.392v3.078h-13.809V347.03h13.494Z" transform="translate(8443.426 -346.715)"/><path class="a" d="M-8363.937,370.884h-2.929l-15.9-18.363v18.363h-3.208V347.03h2.755l16.038,18.5v-18.5h3.243Z" transform="translate(8431.544 -346.715)"/><path class="a" d="M-8324.668,350.037h-8.3v20.847h-3.416V350.037h-8.16V347.03h19.875Z" transform="translate(8415.216 -346.715)"/><path class="a" d="M-8286.357,358.718c0,6.855-5.23,12.277-13.006,12.277-7.461,0-12.552-5.526-12.552-12.173,0-6.33,4.6-12.312,12.728-12.312C-8291.272,346.511-8286.357,352.317-8286.357,358.718Zm-22.036.1a8.9,8.9,0,0,0,9.241,8.989,9.762,9.762,0,0,0,6.938-2.833,10.017,10.017,0,0,0,2.37-6.3,8.966,8.966,0,0,0-9.2-8.954A8.894,8.894,0,0,0-8308.394,358.823Z" transform="translate(8402.357 -346.511)"/></g></svg>